<svg width="158" height="26" viewBox="0 0 158 26" fill="none" xmlns="http://www.w3.org/2000/svg">
<g clip-path="url(#clip0_405_89538)">
<path d="M97.729 1.57812V9.99941H96.2038V1.57812H97.729Z" fill="#5A2989"/>
<path d="M100.288 6.29926V9.99941H98.8002V3.68532H100.223V4.75899H100.295C100.441 4.40528 100.672 4.12432 100.993 3.91611C101.314 3.7079 101.708 3.60254 102.179 3.60254C102.616 3.60254 102.995 3.69536 103.321 3.88099C103.644 4.06663 103.898 4.33755 104.078 4.69126C104.259 5.04497 104.347 5.47394 104.344 5.97816V9.99941H102.857V6.20895C102.857 5.78751 102.749 5.45638 102.53 5.21806C102.312 4.97975 102.011 4.85934 101.627 4.85934C101.366 4.85934 101.136 4.91703 100.935 5.02992C100.734 5.1428 100.576 5.30837 100.463 5.5216C100.35 5.73483 100.293 5.99572 100.293 6.29926H100.288Z" fill="#5A2989"/>
<path d="M110.751 3.68506L108.501 10.0017H106.855L104.605 3.68506H106.193L107.645 8.37609H107.711L109.166 3.68506H110.748H110.751Z" fill="#5A2989"/>
<path d="M113.834 10.1248C113.202 10.1248 112.655 9.99188 112.196 9.72848C111.737 9.46508 111.383 9.08879 111.137 8.60213C110.891 8.11547 110.766 7.541 110.766 6.88125C110.766 6.22149 110.889 5.65957 111.137 5.16789C111.386 4.67621 111.732 4.2924 112.181 4.01645C112.627 3.74051 113.152 3.60254 113.756 3.60254C114.145 3.60254 114.514 3.66525 114.86 3.79068C115.206 3.91611 115.515 4.10927 115.781 4.36765C116.047 4.62604 116.257 4.95968 116.413 5.36105C116.566 5.76242 116.644 6.24156 116.644 6.79345V7.25001H111.466V6.24658H115.216C115.214 5.9606 115.151 5.70723 115.031 5.48397C114.91 5.26071 114.742 5.08511 114.526 4.95466C114.311 4.82672 114.06 4.7615 113.776 4.7615C113.473 4.7615 113.204 4.83425 112.974 4.98226C112.743 5.13026 112.565 5.32091 112.437 5.55672C112.309 5.79503 112.244 6.05342 112.241 6.33689V7.21238C112.241 7.57863 112.309 7.89471 112.442 8.1556C112.577 8.41649 112.763 8.61718 113.006 8.75515C113.249 8.89312 113.53 8.96336 113.854 8.96336C114.07 8.96336 114.265 8.93326 114.441 8.87055C114.617 8.80783 114.77 8.71752 114.898 8.59711C115.026 8.4767 115.123 8.32619 115.189 8.14808L116.578 8.30361C116.491 8.66986 116.325 8.99096 116.079 9.26439C115.833 9.53783 115.52 9.74855 115.138 9.89655C114.757 10.0471 114.321 10.1198 113.831 10.1198L113.834 10.1248Z" fill="#5A2989"/>
<path d="M122.373 5.35352L121.016 5.50153C120.978 5.36356 120.911 5.23562 120.818 5.11521C120.725 4.9948 120.597 4.89696 120.437 4.82422C120.278 4.75147 120.083 4.71384 119.852 4.71384C119.541 4.71384 119.283 4.78157 119.072 4.91452C118.861 5.04748 118.758 5.22308 118.761 5.43631C118.758 5.61943 118.826 5.76995 118.964 5.88534C119.102 6.00074 119.333 6.09606 119.654 6.16881L120.73 6.3996C121.327 6.52754 121.774 6.73324 122.065 7.01169C122.356 7.29014 122.504 7.6564 122.506 8.11045C122.504 8.5068 122.388 8.858 122.157 9.16154C121.927 9.46508 121.611 9.70088 121.207 9.87147C120.8 10.0421 120.336 10.1273 119.809 10.1273C119.037 10.1273 118.415 9.96429 117.943 9.64068C117.471 9.31707 117.19 8.86302 117.1 8.28103L118.553 8.14055C118.618 8.42653 118.758 8.63976 118.972 8.78525C119.185 8.93075 119.463 9.0035 119.807 9.0035C120.151 9.0035 120.444 8.93075 120.66 8.78525C120.876 8.63976 120.983 8.46165 120.983 8.24591C120.983 8.06529 120.913 7.91478 120.775 7.79688C120.637 7.67897 120.421 7.58866 120.133 7.52595L119.057 7.30018C118.45 7.17475 118.003 6.96152 117.712 6.66049C117.421 6.35946 117.278 5.98067 117.281 5.51909C117.278 5.13026 117.384 4.7916 117.599 4.50563C117.815 4.21965 118.114 3.99639 118.5 3.83835C118.886 3.68031 119.33 3.60254 119.834 3.60254C120.575 3.60254 121.159 3.76058 121.583 4.07415C122.009 4.39023 122.273 4.81669 122.376 5.35352H122.373Z" fill="#5A2989"/>
<path d="M126.372 3.6851V4.83654H122.742V3.6851H126.372ZM123.638 2.17243H125.125V8.1027C125.125 8.30339 125.155 8.45641 125.218 8.56177C125.281 8.66713 125.361 8.73988 125.464 8.77751C125.564 8.81514 125.677 8.83521 125.8 8.83521C125.893 8.83521 125.978 8.82768 126.056 8.81514C126.134 8.8026 126.194 8.79005 126.234 8.77751L126.485 9.94149C126.405 9.96908 126.292 9.99919 126.146 10.0318C126.001 10.0644 125.82 10.0845 125.609 10.0895C125.236 10.0995 124.899 10.0443 124.601 9.91891C124.302 9.79348 124.067 9.60032 123.891 9.33692C123.718 9.07352 123.63 8.7449 123.635 8.35105V2.16992L123.638 2.17243Z" fill="#5A2989"/>
<path d="M129.515 10.0019V1.57812H132.673C133.321 1.57812 133.865 1.69101 134.304 1.91427C134.743 2.13754 135.077 2.45362 135.302 2.8575C135.528 3.26138 135.641 3.73299 135.641 4.26983C135.641 4.80666 135.526 5.27827 135.297 5.67463C135.069 6.07098 134.733 6.37703 134.289 6.59277C133.845 6.8085 133.298 6.91637 132.653 6.91637H130.403V5.64954H132.448C132.826 5.64954 133.135 5.59686 133.376 5.4915C133.617 5.38614 133.795 5.23061 133.913 5.02742C134.028 4.82422 134.088 4.57085 134.088 4.27233C134.088 3.97381 134.028 3.71794 133.91 3.50471C133.792 3.29148 133.612 3.13093 133.371 3.02056C133.13 2.91018 132.819 2.85499 132.438 2.85499H131.04V10.0019H129.515ZM133.865 6.18638L135.95 10.0019H134.246L132.199 6.18638H133.865Z" fill="#5A2989"/>
<path d="M137.209 2.78691C136.973 2.78691 136.77 2.70914 136.599 2.5511C136.429 2.39306 136.343 2.20492 136.343 1.98166C136.343 1.75839 136.429 1.56523 136.599 1.40719C136.77 1.24915 136.973 1.17139 137.209 1.17139C137.445 1.17139 137.65 1.24915 137.818 1.40719C137.987 1.56523 138.072 1.75588 138.072 1.98166C138.072 2.20743 137.987 2.39306 137.818 2.5511C137.65 2.70914 137.447 2.78691 137.209 2.78691ZM136.461 9.99906V3.68498H137.949V10.0016H136.461V9.99906Z" fill="#5A2989"/>
<path d="M141.704 12.5005C141.17 12.5005 140.711 12.4277 140.327 12.2847C139.943 12.1417 139.635 11.9486 139.401 11.7077C139.168 11.4669 139.008 11.1985 138.917 10.905L140.257 10.5789C140.317 10.7018 140.405 10.8247 140.52 10.9476C140.636 11.0706 140.791 11.1709 140.987 11.2512C141.182 11.3315 141.431 11.3716 141.729 11.3716C142.151 11.3716 142.502 11.2687 142.778 11.0655C143.054 10.8624 143.194 10.5262 143.194 10.0596V8.86302H143.122C143.044 9.01604 142.933 9.17408 142.785 9.33714C142.64 9.5002 142.444 9.63566 142.206 9.74353C141.968 9.8514 141.664 9.9091 141.303 9.9091C140.819 9.9091 140.377 9.7937 139.986 9.56542C139.592 9.33714 139.281 8.99347 139.048 8.53691C138.817 8.08035 138.701 7.50839 138.701 6.82104C138.701 6.13369 138.817 5.54167 139.048 5.06253C139.278 4.58339 139.592 4.22216 139.988 3.97381C140.382 3.72546 140.824 3.60254 141.308 3.60254C141.677 3.60254 141.983 3.66525 142.224 3.79068C142.464 3.91611 142.655 4.06412 142.798 4.23972C142.941 4.41281 143.049 4.57837 143.122 4.7314H143.204V3.68783H144.672V10.1073C144.672 10.6466 144.544 11.0931 144.286 11.4469C144.027 11.8006 143.676 12.064 143.229 12.2396C142.783 12.4152 142.276 12.503 141.709 12.503L141.704 12.5005ZM141.717 8.74261C142.033 8.74261 142.301 8.66484 142.522 8.51182C142.743 8.3588 142.913 8.13804 143.029 7.84956C143.144 7.56107 143.202 7.2174 143.202 6.81352C143.202 6.40963 143.144 6.06847 143.031 5.76995C142.918 5.47143 142.75 5.23813 142.53 5.07256C142.309 4.907 142.038 4.82422 141.717 4.82422C141.396 4.82422 141.107 4.90951 140.886 5.0826C140.666 5.25569 140.498 5.4915 140.385 5.79253C140.272 6.09355 140.217 6.43221 140.217 6.81352C140.217 7.19482 140.274 7.53849 140.387 7.82698C140.5 8.11547 140.668 8.34124 140.894 8.50179C141.117 8.66233 141.393 8.74261 141.719 8.74261H141.717Z" fill="#5A2989"/>
<path d="M147.165 6.29926V9.99941H145.678V1.57812H147.133V4.75649H147.206C147.354 4.40027 147.584 4.11931 147.895 3.9111C148.206 3.7054 148.603 3.60004 149.087 3.60004C149.526 3.60004 149.907 3.69285 150.233 3.87598C150.56 4.05911 150.813 4.32752 150.991 4.68123C151.169 5.03494 151.259 5.46642 151.259 5.97566V9.9969H149.772V6.20645C149.772 5.7825 149.664 5.45136 149.446 5.21305C149.227 4.97724 148.924 4.85683 148.53 4.85683C148.267 4.85683 148.031 4.91453 147.825 5.02742C147.619 5.1403 147.456 5.30587 147.341 5.5191C147.226 5.73232 147.165 5.99322 147.165 6.29675V6.29926Z" fill="#5A2989"/>
<path d="M155.409 3.6851V4.83654H151.779V3.6851H155.409ZM152.674 2.17243H154.162V8.1027C154.162 8.30339 154.192 8.45641 154.255 8.56177C154.317 8.66713 154.398 8.73988 154.501 8.77751C154.601 8.81514 154.714 8.83521 154.837 8.83521C154.93 8.83521 155.015 8.82768 155.093 8.81514C155.17 8.8026 155.231 8.79005 155.271 8.77751L155.522 9.94149C155.441 9.96908 155.328 9.99919 155.183 10.0318C155.037 10.0644 154.857 10.0845 154.646 10.0895C154.272 10.0995 153.936 10.0443 153.638 9.91891C153.339 9.79348 153.103 9.60032 152.928 9.33692C152.755 9.07352 152.667 8.7449 152.672 8.35105V2.16992L152.674 2.17243Z" fill="#5A2989"/>
<path d="M157.88 8.85016L157.827 9.30171C157.789 9.64789 157.722 9.99909 157.624 10.3553C157.526 10.714 157.426 11.0427 157.318 11.3437C157.21 11.6447 157.124 11.883 157.059 12.0561H156.056C156.093 11.888 156.146 11.6623 156.214 11.3738C156.282 11.0853 156.347 10.7617 156.41 10.403C156.472 10.0442 156.515 9.67799 156.537 9.30923L156.568 8.84766H157.885L157.88 8.85016Z" fill="#5A2989"/>
<path d="M97.729 13.8599V22.2811H96.2038V13.8599H97.729Z" fill="#5A2989"/>
<path d="M100.288 18.5811V22.2812H98.8002V15.9646H100.223V17.0383H100.295C100.441 16.6846 100.672 16.4036 100.993 16.1954C101.314 15.9872 101.708 15.8818 102.179 15.8818C102.616 15.8818 102.995 15.9747 103.321 16.1603C103.644 16.3459 103.898 16.6168 104.078 16.9706C104.259 17.3243 104.347 17.7532 104.344 18.2575V22.2787H102.857V18.4882C102.857 18.0668 102.749 17.7357 102.53 17.4974C102.312 17.259 102.011 17.1386 101.627 17.1386C101.366 17.1386 101.136 17.1963 100.935 17.3092C100.734 17.4221 100.576 17.5877 100.463 17.8009C100.35 18.0141 100.293 18.275 100.293 18.5786L100.288 18.5811Z" fill="#5A2989"/>
<path d="M110.751 15.9673L108.501 22.2839H106.855L104.605 15.9673H106.193L107.645 20.6583H107.711L109.166 15.9673H110.748H110.751Z" fill="#5A2989"/>
<path d="M113.834 22.4066C113.202 22.4066 112.655 22.2736 112.196 22.0102C111.737 21.7468 111.383 21.3705 111.137 20.8839C110.891 20.3972 110.766 19.8227 110.766 19.163C110.766 18.5032 110.889 17.9413 111.137 17.4496C111.386 16.9579 111.732 16.5741 112.181 16.2982C112.627 16.0222 113.152 15.8843 113.756 15.8843C114.145 15.8843 114.514 15.947 114.86 16.0724C115.206 16.1978 115.515 16.391 115.781 16.6494C116.047 16.9078 116.257 17.2414 116.413 17.6428C116.566 18.0442 116.644 18.5233 116.644 19.0752V19.5317H111.466V18.5283H115.216C115.214 18.2423 115.151 17.989 115.031 17.7657C114.91 17.5424 114.742 17.3668 114.526 17.2364C114.311 17.1085 114.06 17.0432 113.776 17.0432C113.473 17.0432 113.204 17.116 112.974 17.264C112.743 17.412 112.565 17.6027 112.437 17.8385C112.309 18.0768 112.244 18.3352 112.241 18.6186V19.4941C112.241 19.8604 112.309 20.1764 112.442 20.4373C112.577 20.6982 112.763 20.8989 113.006 21.0369C113.249 21.1749 113.53 21.2451 113.854 21.2451C114.07 21.2451 114.265 21.215 114.441 21.1523C114.617 21.0896 114.77 20.9993 114.898 20.8789C115.026 20.7584 115.123 20.6079 115.189 20.4298L116.578 20.5853C116.491 20.9516 116.325 21.2727 116.079 21.5461C115.833 21.8196 115.52 22.0303 115.138 22.1783C114.757 22.3288 114.321 22.4016 113.831 22.4016L113.834 22.4066Z" fill="#5A2989"/>
<path d="M122.373 17.6353L121.016 17.7833C120.978 17.6453 120.911 17.5174 120.818 17.3969C120.725 17.2765 120.597 17.1787 120.437 17.106C120.278 17.0332 120.083 16.9956 119.852 16.9956C119.541 16.9956 119.283 17.0633 119.072 17.1963C118.861 17.3292 118.758 17.5048 118.761 17.718C118.758 17.9012 118.826 18.0517 118.964 18.1671C119.102 18.2825 119.333 18.3778 119.654 18.4506L120.73 18.6813C121.327 18.8093 121.774 19.015 122.065 19.2934C122.356 19.5719 122.504 19.9381 122.506 20.3922C122.504 20.7885 122.388 21.1397 122.157 21.4433C121.927 21.7468 121.611 21.9826 121.207 22.1532C120.8 22.3238 120.336 22.4091 119.809 22.4091C119.037 22.4091 118.415 22.246 117.943 21.9224C117.471 21.5988 117.19 21.1448 117.1 20.5628L118.553 20.4223C118.618 20.7083 118.758 20.9215 118.972 21.067C119.185 21.2125 119.463 21.2852 119.807 21.2852C120.151 21.2852 120.444 21.2125 120.66 21.067C120.876 20.9215 120.983 20.7434 120.983 20.5277C120.983 20.347 120.913 20.1965 120.775 20.0786C120.637 19.9607 120.421 19.8704 120.133 19.8077L119.057 19.5819C118.45 19.4565 118.003 19.2433 117.712 18.9422C117.421 18.6412 117.278 18.2624 117.281 17.8008C117.278 17.412 117.384 17.0733 117.599 16.7874C117.815 16.5014 118.114 16.2781 118.5 16.1201C118.886 15.962 119.33 15.8843 119.834 15.8843C120.575 15.8843 121.159 16.0423 121.583 16.3559C122.009 16.672 122.273 17.0984 122.376 17.6353H122.373Z" fill="#5A2989"/>
<path d="M126.372 15.9673V17.1187H122.742V15.9673H126.372ZM123.638 14.4546H125.125V20.3849C125.125 20.5855 125.155 20.7386 125.218 20.8439C125.281 20.9493 125.361 21.022 125.464 21.0597C125.564 21.0973 125.677 21.1174 125.8 21.1174C125.893 21.1174 125.978 21.1098 126.056 21.0973C126.134 21.0848 126.194 21.0722 126.234 21.0597L126.485 22.2236C126.405 22.2512 126.292 22.2813 126.146 22.314C126.001 22.3466 125.82 22.3666 125.609 22.3717C125.236 22.3817 124.899 22.3265 124.601 22.2011C124.302 22.0756 124.067 21.8825 123.891 21.6191C123.718 21.3557 123.63 21.0271 123.635 20.6332V14.4571L123.638 14.4546Z" fill="#5A2989"/>
<path d="M136.436 13.8599V22.2811H135.079L131.111 16.544H131.04V22.2811H129.515V13.8599H130.88L134.843 19.5995H134.916V13.8599H136.434H136.436Z" fill="#5A2989"/>
<path d="M140.259 22.4066C139.642 22.4066 139.108 22.2711 138.656 22.0002C138.205 21.7293 137.854 21.348 137.605 20.8613C137.357 20.3746 137.234 19.8027 137.234 19.1504C137.234 18.4982 137.357 17.9263 137.605 17.4346C137.854 16.9429 138.205 16.5616 138.656 16.2907C139.108 16.0197 139.642 15.8843 140.259 15.8843C140.876 15.8843 141.411 16.0197 141.862 16.2907C142.314 16.5616 142.665 16.9429 142.913 17.4346C143.162 17.9263 143.285 18.4957 143.285 19.1504C143.285 19.8052 143.162 20.3721 142.913 20.8613C142.665 21.3505 142.316 21.7293 141.862 22.0002C141.411 22.2711 140.876 22.4066 140.259 22.4066ZM140.267 21.215C140.601 21.215 140.881 21.1222 141.105 20.9365C141.331 20.7509 141.499 20.5026 141.609 20.189C141.719 19.8754 141.775 19.5292 141.775 19.1454C141.775 18.7616 141.719 18.4079 141.609 18.0943C141.499 17.7808 141.331 17.5299 141.105 17.3443C140.879 17.1586 140.601 17.0658 140.267 17.0658C139.933 17.0658 139.64 17.1586 139.414 17.3443C139.188 17.5299 139.02 17.7808 138.907 18.0943C138.797 18.4079 138.742 18.7591 138.742 19.1454C138.742 19.5317 138.797 19.8779 138.907 20.189C139.018 20.5026 139.188 20.7509 139.414 20.9365C139.64 21.1222 139.926 21.215 140.267 21.215Z" fill="#5A2989"/>
<path d="M145.154 22.2809L143.37 15.9644H144.888L145.999 20.4045H146.057L147.191 15.9644H148.691L149.825 20.3794H149.887L150.981 15.9644H152.504L150.715 22.2809H149.165L147.981 18.0114H147.895L146.711 22.2809H145.156H145.154Z" fill="#5A2989"/>
<path d="M153.088 22.3715C152.84 22.3715 152.624 22.2837 152.446 22.1081C152.268 21.9325 152.18 21.7192 152.183 21.4659C152.18 21.22 152.268 21.0093 152.446 20.8337C152.624 20.6581 152.837 20.5703 153.088 20.5703C153.339 20.5703 153.54 20.6581 153.72 20.8337C153.901 21.0093 153.991 21.22 153.994 21.4659C153.991 21.6339 153.949 21.7845 153.863 21.9224C153.781 22.0604 153.67 22.1683 153.535 22.2485C153.399 22.3288 153.251 22.369 153.088 22.369V22.3715Z" fill="#5A2989"/>
<path fill-rule="evenodd" clip-rule="evenodd" d="M49.7174 5.2327V7.33489H46.1627V13.3479C46.1627 14.6248 46.9053 15.2645 48.1294 15.2645C48.7942 15.257 49.4565 15.1616 50.0962 14.9835L50.4223 17.1108C49.5719 17.3867 48.6813 17.5222 47.7858 17.5122C45.2571 17.5122 43.6792 16.1024 43.6792 13.6565V7.33739H41.5294V5.23521H43.7169V1.37451H46.1401V5.2327H49.7174Z" fill="#5A2989"/>
<path fill-rule="evenodd" clip-rule="evenodd" d="M36.0633 10.0015C34.5456 9.68796 33.9812 9.31168 33.9812 8.56161C33.9812 7.67358 34.8843 7.15179 36.7055 7.15179C37.9623 7.15179 39.2065 7.3876 40.373 7.8542L40.6364 5.69682C39.342 5.20263 37.9673 4.95679 36.58 4.97184C33.5647 4.97184 31.5554 6.47448 31.5554 8.51395C31.5554 10.3653 32.6792 11.5769 34.8065 12.0059L36.5901 12.3696C38.1479 12.6832 38.8026 13.1222 38.8026 13.935C38.8026 14.8632 37.9598 15.3172 36.1536 15.3172C34.7362 15.2996 33.3365 15.0036 32.032 14.4467L31.731 16.5941C32.7745 17.1585 34.4804 17.4921 36.3141 17.4921C39.2391 17.4921 41.2234 16.3282 41.2234 13.8974C41.2234 11.8077 39.9164 10.7792 37.4681 10.28L36.0633 9.99903V10.0015Z" fill="#5A2989"/>
<path fill-rule="evenodd" clip-rule="evenodd" d="M56.4629 15.1748C55.9411 15.1898 55.4243 15.097 54.9402 14.9038C54.456 14.7107 54.017 14.4197 53.6483 14.0509C53.2795 13.6822 52.991 13.2407 52.7978 12.754C52.6047 12.2673 52.5144 11.748 52.5294 11.2263C52.5319 10.4486 52.7652 9.69102 53.1967 9.04631C53.6282 8.40161 54.2403 7.89989 54.9577 7.60388C55.6727 7.30787 56.4604 7.23011 57.2205 7.38313C57.9806 7.53615 58.6779 7.90993 59.2248 8.45931C59.7717 9.00869 60.1455 9.70858 60.296 10.4687C60.4465 11.2313 60.3712 12.019 60.0752 12.7364C59.7792 13.4539 59.28 14.0685 58.6378 14.5025C57.9956 14.9364 57.2405 15.1672 56.4654 15.1723L56.4629 15.1748ZM56.4629 4.98242C52.7953 4.98242 50.0535 7.72429 50.0535 11.2438C50.0535 14.7634 52.7928 17.5052 56.4604 17.5052C60.1279 17.5052 62.8622 14.7634 62.8622 11.2438C62.8622 7.72429 60.1279 4.98242 56.4629 4.98242Z" fill="#5A2989"/>
<path fill-rule="evenodd" clip-rule="evenodd" d="M64.9318 5.23291L68.0575 9.46488L71.1832 5.23291H74.0455L69.6003 11.1155L74.1458 17.2515H71.2836L68.0575 12.7561L64.829 17.2515H61.9642L66.5123 11.1155L62.0645 5.23291H64.9318Z" fill="#5A2989"/>
<path d="M24.7045 15.2726C24.1802 15.2851 23.6584 15.1923 23.1717 14.9992C22.685 14.806 22.241 14.5125 21.8698 14.1437C21.4985 13.7725 21.205 13.331 21.0068 12.8418C20.8111 12.3551 20.7133 11.8308 20.7233 11.304C20.7233 9.08896 22.379 7.21255 24.7019 7.20753C27.0224 7.20753 28.5727 9.08645 28.5727 11.304C28.5727 13.5216 27.0274 15.2726 24.707 15.2726H24.7045ZM25.003 4.98242C22.9535 4.98242 21.5988 5.73249 20.7058 6.87138V5.23328H18.2198V22.2615H20.7058V15.6037C21.5988 16.7301 22.9535 17.4952 25.003 17.4952C28.4297 17.4952 31.0562 14.9916 31.0562 11.294C31.0562 7.59636 28.4297 4.98242 25.003 4.98242Z" fill="#5A2989"/>
<path fill-rule="evenodd" clip-rule="evenodd" d="M5.43607 11.6748C6.48716 10.9348 7.34007 9.9489 7.92206 8.80248V12.0034C7.92206 13.9952 9.01329 15.1467 10.8596 15.1467C12.7059 15.1467 14.2512 13.9977 14.2512 12.0034V5.23779H16.7422V17.2564H14.2412V15.7387C13.8398 16.3533 12.6984 17.5022 10.4758 17.5022C7.18705 17.5022 5.44359 15.4477 5.44359 12.5302L5.43857 11.6698L5.43607 11.6748Z" fill="#5A2989"/>
<path d="M-8.54207e-05 10.639V13.0497C2.09206 13.0497 4.10143 12.2269 5.59403 10.7569C6.32654 10.0369 6.91103 9.17897 7.3099 8.22822C7.70876 7.27997 7.91446 6.26149 7.91446 5.23047H5.47613C5.47613 5.9404 5.33314 6.64531 5.0572 7.30004C4.78126 7.95729 4.37738 8.55182 3.87064 9.05103C2.83711 10.0695 1.44736 10.639 -0.00259399 10.639H-8.54207e-05Z" fill="#5A2989"/>
<path d="M84.7949 0.429199V22.0556" stroke="#5A2989" stroke-width="0.752572" stroke-miterlimit="10"/>
</g>
<defs>
<clipPath id="clip0_405_89538">
<rect width="158" height="25.9838" fill="white"/>
</clipPath>
</defs>
</svg>
